<svg width="160" height="40" viewBox="0 0 160 40" fill="none" xmlns="http://www.w3.org/2000/svg">
<g clip-path="url(#clip0_2040_16439)">
<path d="M66.4664 34.1161V22.6451H54.7446V34.1161H48.3779V5.52689H54.7446V16.8508H66.4664V5.52689H72.8331V34.1161H66.4664Z" fill="#393A36"/>
<path d="M91.1302 34.6161C82.1157 34.6161 75.9275 28.3512 75.9275 19.9097V19.8215C75.9275 11.7036 82.3239 5.02689 91.1004 5.02689C96.3068 5.02689 99.4604 6.40928 102.465 8.93878L98.4489 13.7331C96.2176 11.8801 94.2243 10.8212 90.8922 10.8212C86.251 10.8212 82.5917 14.8802 82.5917 19.7333V19.8215C82.5917 25.057 86.2213 28.8806 91.3384 28.8806C93.659 28.8806 95.7118 28.3218 97.3183 27.1747V23.0863H90.9219V17.645H103.477V30.0571C100.057 33.0072 95.6688 34.6275 91.1302 34.6161Z" fill="#393A36"/>
<path d="M131.68 34.1161L127.991 26.1158H110.914L107.225 34.1161H104.994L118.471 5.32101H120.524L134.001 34.1161H131.68ZM119.483 7.64462L111.837 24.204H127.099L119.483 7.64462Z" fill="#393A36"/>
<path d="M157.296 34.1161L148.073 22.2627H138.612V34.1161H136.47V5.52689H148.609C154.856 5.52689 158.932 8.87994 158.932 13.6448V13.733C158.932 18.5273 155.332 21.2627 150.453 21.9098L160.003 34.1161H157.296ZM156.79 13.733C156.79 9.87997 153.726 7.46813 148.49 7.46813H138.612V20.3509H148.371C153.22 20.3509 156.79 17.9391 156.79 13.8213V13.733Z" fill="#393A36"/>
<path d="M19.6395 39.6751C30.4675 39.6751 39.2453 30.997 39.2453 20.2921C39.2453 9.58716 30.4675 0.909088 19.6395 0.909088C8.81151 0.909088 0.0336914 9.58716 0.0336914 20.2921C0.0336914 30.997 8.81151 39.6751 19.6395 39.6751Z" fill="white"/>
<path d="M12.3795 4.58574L14.1646 6.08579L16.9016 29.2336L22.7626 29.7337L22.7923 29.5866L18.0619 27.6159L17.8239 25.3806L23.5658 23.3217L25.2616 9.23296L27.0467 7.87997L28.1177 8.29174L27.2549 22.0275L39.1553 17.7627C38.7638 14.8835 37.7246 12.1278 36.1142 9.69788C34.5038 7.268 32.3631 5.2258 29.8494 3.72137C27.3357 2.21695 24.513 1.28856 21.5886 1.00444C18.6643 0.720316 15.7128 1.08769 12.9509 2.07956C10.1891 3.07142 7.68722 4.66256 5.62916 6.73602C3.57111 8.80948 2.0092 11.3126 1.05827 14.0612C0.107333 16.8099 -0.208465 19.7344 0.134091 22.6196C0.476647 25.5048 1.46885 28.2774 3.03776 30.7337L11.2192 27.763L11.4572 30.4396L4.5848 32.8514C6.8683 35.5358 9.83706 37.567 13.1828 38.7339L11.2787 5.43871L12.3795 4.58574Z" fill="#235B7B"/>
<path d="M26.2136 38.6162C29.4958 37.4641 32.4097 35.471 34.6574 32.8406C36.9051 30.2102 38.4059 27.0369 39.0065 23.6451L26.8681 28.1159L26.2136 38.6162Z" fill="#235B7B"/>
<path d="M17.1694 31.6454L17.9727 39.6751C18.536 39.7338 19.1021 39.7633 19.6685 39.7633C20.442 39.7633 21.1858 39.7045 21.9296 39.6457L22.6733 32.0572L17.1694 31.6454Z" fill="#235B7B"/>
</g>
<defs>
<clipPath id="clip0_2040_16439">
<rect width="160" height="40" fill="white"/>
</clipPath>
</defs>
</svg>
